#N canvas 10 303 632 477 10;
#X obj -153 -145 tgl 25 0 empty empty DSP 3 12 1 9 -24198 -1 -1 0 1
;
#X msg -151 -114 \; pd dsp \$1;
#X floatatom -154 212 6 0 0 0 - - -;
#X floatatom -138 187 6 0 0 0 - - -;
#X text -97 180 dB;
#X text -113 210 dB;
#X text -120 -32 dB;
#X text -111 -12 dB;
#X text -88 -14 peak-level;
#X text -90 -35 rms-level;
#X text -76 179 peak-level;
#X text -93 209 rms-level;
#X floatatom -180 -32 7 -110 20 0 - - -;
#X floatatom -169 -11 7 -110 20 0 - - -;
#N canvas 236 62 699 530 edit 0;
#X obj 37 222 f;
#X msg 15 201 bang;
#X floatatom 53 200 3 50 88 0 - - -;
#X floatatom 88 222 3 0 37 0 - - -;
#X obj 37 245 pack 0 0;
#X text 115 222 y-label;
#X text 81 200 x-label;
#X obj 292 313 f;
#X msg 270 292 bang;
#X floatatom 308 291 3 -10 10 0 - - -;
#X floatatom 343 313 3 -10 10 0 - - -;
#X obj 292 336 pack 0 0;
#X obj 304 435 f;
#X msg 282 414 bang;
#X floatatom 320 413 3 20 140 0 - - -;
#X floatatom 355 435 3 150 200 0 - - -;
#X obj 304 458 pack 0 0;
#X text 336 291 x-delta;
#X text 370 313 y-delta;
#X text 348 413 x-position;
#X text 382 435 y-position;
#X obj 57 337 f;
#X msg 35 316 bang;
#X floatatom 73 315 3 0 2 0 - - -;
#X floatatom 108 337 3 8 36 0 - - -;
#X obj 57 360 pack 0 0;
#X text 101 315 font;
#X text 137 337 height;
#X floatatom 471 106 1 0 1 0 - - -;
#X msg 52 131 \; foo7_rcv color \$1 \$2;
#X msg 37 270 \; foo7_rcv label_pos \$1 \$2;
#X msg 57 386 \; foo7_rcv label_font \$1 \$2;
#X msg 37 427 \; foo7_rcv label blabla;
#X msg 292 361 \; foo7_rcv delta \$1 \$2;
#X msg 304 483 \; foo7_rcv pos \$1 \$2;
#X msg 469 23 \; foo7_rcv receive foo7a_rcv;
#X msg 469 60 \; foo7a_rcv receive foo7_rcv;
#X text 492 106 display scale;
#X msg 471 132 \; foo7_rcv scale \$1;
#X obj 279 193 f;
#X msg 257 172 bang;
#X floatatom 295 171 3 8 50 0 - - -;
#X floatatom 330 193 3 110 200 0 - - -;
#X obj 279 216 pack 0 0;
#X text 323 171 width;
#X text 357 193 height;
#X msg 279 241 \; foo7_rcv size \$1 \$2;
#X msg 37 463 \; foo7_rcv label vu-meter;
#X obj 52 79 f;
#X msg 29 31 bang;
#X floatatom 68 29 3 0 29 0 - - -;
#X floatatom 103 47 3 0 29 0 - - -;
#X text 96 29 background;
#X text 131 48 label-color;
#X msg 290 25 back;
#X msg 290 49 label;
#X msg 252 25 bang;
#N canvas 15 207 606 448 RGB_____________ 0;
#X obj 97 56 inlet;
#X obj 262 53 inlet;
#X obj 339 55 inlet;
#X obj 405 56 inlet;
#X obj 97 270 bang;
#X msg 77 295 0;
#X msg 104 295 1;
#X obj 146 268 bang;
#X msg 132 295 0;
#X msg 160 295 1;
#X obj 265 313 spigot;
#X obj 312 313 spigot;
#X obj 249 385 outlet;
#X text 93 33 select;
#X text 267 28 red;
#X text 337 30 green;
#X text 409 30 blue;
#X obj 405 102 t b f;
#X obj 339 160 +;
#X obj 339 185 t b f;
#X obj 339 216 +;
#X obj 296 385 outlet;
#X obj 28 180 loadbang;
#X obj 296 361 f;
#X obj 249 361 f;
#X obj 262 79 * -65536;
#X obj 339 80 * -256;
#X obj 405 80 * -1;
#X obj 339 247 - 1;
#X obj 97 135 route back label bang;
#X obj 235 168 t b b b;
#X connect 0 0 29 0;
#X connect 1 0 25 0;
#X connect 2 0 26 0;
#X connect 3 0 27 0;
#X connect 4 0 5 0;
#X connect 4 0 6 0;
#X connect 5 0 11 1;
#X connect 6 0 10 1;
#X connect 7 0 8 0;
#X connect 7 0 9 0;
#X connect 8 0 10 1;
#X connect 9 0 11 1;
#X connect 10 0 24 1;
#X connect 11 0 23 1;
#X connect 17 0 18 0;
#X connect 17 1 18 1;
#X connect 18 0 19 0;
#X connect 19 0 20 0;
#X connect 19 1 20 1;
#X connect 20 0 28 0;
#X connect 22 0 6 0;
#X connect 23 0 21 0;
#X connect 24 0 12 0;
#X connect 25 0 20 0;
#X connect 26 0 18 0;
#X connect 27 0 17 0;
#X connect 28 0 11 0;
#X connect 28 0 10 0;
#X connect 29 0 4 0;
#X connect 29 1 7 0;
#X connect 29 2 30 0;
#X connect 30 0 24 0;
#X connect 30 1 23 0;
#X connect 30 2 28 0;
#X restore 290 86 pd RGB_____________;
#X floatatom 332 55 3 0 255 0 - - -;
#X floatatom 375 55 3 0 255 0 - - -;
#X floatatom 418 56 3 0 255 0 - - -;
#X text 39 3 preset-colors;
#X text 301 0 RGB-colors;
#X text 332 37 red;
#X text 368 36 green;
#X text 416 36 blue;
#X obj 52 104 pack 0 0;
#X connect 0 0 4 0;
#X connect 1 0 0 0;
#X connect 2 0 0 1;
#X connect 3 0 4 1;
#X connect 4 0 30 0;
#X connect 7 0 11 0;
#X connect 8 0 7 0;
#X connect 9 0 7 1;
#X connect 10 0 11 1;
#X connect 11 0 33 0;
#X connect 12 0 16 0;
#X connect 13 0 12 0;
#X connect 14 0 12 1;
#X connect 15 0 16 1;
#X connect 16 0 34 0;
#X connect 21 0 25 0;
#X connect 22 0 21 0;
#X connect 23 0 21 1;
#X connect 24 0 25 1;
#X connect 25 0 31 0;
#X connect 28 0 38 0;
#X connect 39 0 43 0;
#X connect 40 0 39 0;
#X connect 41 0 39 1;
#X connect 42 0 43 1;
#X connect 43 0 46 0;
#X connect 48 0 66 0;
#X connect 49 0 48 0;
#X connect 50 0 48 1;
#X connect 51 0 66 1;
#X connect 54 0 57 0;
#X connect 55 0 57 0;
#X connect 56 0 57 0;
#X connect 57 0 66 0;
#X connect 57 1 66 1;
#X connect 58 0 57 1;
#X connect 59 0 57 2;
#X connect 60 0 57 3;
#X connect 66 0 29 0;
#X restore -114 74 pd edit;
#N canvas 147 336 290 235 source 0;
#X obj 40 95 random 102;
#X obj 40 171 - 101;
#X obj 40 205 pack 0 0;
#X obj 40 45 metro 300;
#X obj 40 69 t b b;
#X obj 133 95 random 20;
#X obj 40 117 t f f;
#X obj 91 147 +;
#X obj 91 172 - 101;
#X obj 40 21 inlet;
#X obj 40 230 outlet;
#X connect 0 0 6 0;
#X connect 1 0 2 0;
#X connect 2 0 10 0;
#X connect 3 0 4 0;
#X connect 4 0 0 0;
#X connect 4 1 5 0;
#X connect 5 0 7 1;
#X connect 6 0 1 0;
#X connect 6 1 7 0;
#X connect 7 0 8 0;
#X connect 8 0 2 1;
#X connect 9 0 3 0;
#X restore -188 -77 pd source;
#X obj -128 -54 s fff;
#X obj -187 27 vu 15 120 empty empty -1 -8 0 10 -66577 -1 1 0;
#X obj -240 27 vu 15 120 empty empty -1 -8 0 10 -66577 -1 1 0;
#X floatatom -230 216 6 0 0 0 - - -;
#X floatatom -222 186 6 0 0 0 - - -;
#N canvas 249 148 1840 909 META 1;
#X obj 822 -205 adc~;
#N canvas 0 22 796 453 (subpatch) 0;
#X array array1 100 float 3;
#A 0 0.228244 0.213813 0.197847 0.18169 0.168088 0.154999 0.139879
0.125833 0.116498 0.11051 0.10494 0.0993726 0.0925444 0.0854511 0.0833336
0.0862232 0.0915761 0.0977781 0.102923 0.107372 0.111511 0.112379 0.10634
0.0934554 0.0736515 0.0499687 0.0261743 0.00322171 -0.0197587 -0.0428386
-0.0601017 -0.0718724 -0.0811952 -0.0876538 -0.0943508 -0.102239 -0.108383
-0.111451 -0.110798 -0.109189 -0.11079 -0.113016 -0.114083 -0.114475
-0.113169 -0.107629 -0.0971945 -0.0900168 -0.0895841 -0.0918148 -0.0933292
-0.0952604 -0.102117 -0.111351 -0.119075 -0.121767 -0.117873 -0.109333
-0.0975891 -0.0851367 -0.0719331 -0.056336 -0.0415741 -0.0334856 -0.0301745
-0.0268878 -0.0210879 -0.0142495 -0.00953387 -0.00534483 -0.00168017
0.00133764 0.00431379 0.00631195 0.00734801 0.00655822 0.00313484 -0.000182935
-0.00272356 -0.00591407 -0.00691021 -0.00547418 -0.00231468 0.0024373
0.00743008 0.0119105 0.016311 0.0226229 0.0301544 0.0367535 0.0426849
0.0512752 0.059725 0.0660536 0.0738083 0.0808695 0.0871385 0.0938541
0.101385 0.112733;
#X coords 0 1 99 -1 200 140 1;
#X restore 1066 -250 graph;
#X obj 958 -161 tabwrite~ array1;
#X obj 958 -203 bng 15 250 50 0 empty empty empty 17 7 0 10 -262144
-1 -1;
#X obj 813 -73 threshold~ 1 3000 0.1 1000;
#X text 1024 -183 msec.;
#X text 664 -167 input sensitivity mic;
#X obj 958 -182 metro 160;
#X obj 688 535 freeverb~;
#X msg 708 -122 roomsize \$1;
#X msg 708 -77 damping \$1;
#X msg 710 -25 width \$1;
#X msg 710 19 wet \$1;
#X msg 710 63 dry \$1;
#X msg 919 48 print;
#X msg 813 10 freeze \$1;
#X msg 824 68 bypass \$1;
#X obj 824 49 tgl 15 0 empty empty empty 0 -6 0 8 -262144 -1 -1 0 1
;
#X obj 813 -10 tgl 15 0 empty empty empty 0 -6 0 8 -262144 -1 -1 0
1;
#X obj 722 40 hsl 60 18 0 1 0 1 empty empty dry 2 9 1 12 -225271 -1
-1 1100 0;
#X obj 722 -4 hsl 60 18 0 1 0 1 empty empty wet 2 9 1 12 -225271 -1
-1 2300 0;
#X obj 720 -56 hsl 60 18 0 1 0 1 empty empty width 2 9 1 12 -262131
-1 -1 1100 0;
#X obj 720 -100 hsl 60 18 0 2 0 1 empty empty damping 2 9 1 12 -261689
-1 -1 300 0;
#X obj 725 -146 hsl 60 18 0.11 1.1 0 1 empty empty roomsize 2 9 1 12
-261689 -1 -1 1300 0;
#X floatatom 690 -141 3 0 0 0 - - -;
#X floatatom 690 -96 3 0 0 0 - - -;
#X floatatom 690 -51 3 0 0 0 - - -;
#X floatatom 692 0 3 0 0 0 - - -;
#X floatatom 692 44 3 0 0 0 - - -;
#X obj 697 594 dac~;
#X text 895 -29 msec.;
#X obj 1165 74 fiddle~;
#X obj 1165 126 moses 60;
#X obj 901 167 bng 15 250 50 0 empty empty empty 17 7 0 10 -262144
-1 -1;
#X obj 974 168 bng 15 250 50 0 empty empty empty 17 7 0 10 -262144
-1 -1;
#X floatatom 1165 98 5 0 0 0 - - -;
#X msg 901 232 freeze \$1;
#X obj 901 213 tgl 15 0 empty empty empty 0 -6 0 8 -262144 -1 -1 0
1;
#X msg 974 233 freeze \$1;
#X obj 974 214 tgl 15 0 empty empty empty 0 -6 0 8 -262144 -1 -1 0
1;
#X obj 901 191 metro 3500;
#X obj 974 190 metro 3500;
#X obj 813 -50 bng 15 250 50 0 empty empty empty 17 7 0 10 -262144
-1 -1;
#X obj 813 -30 metro 2500;
#X obj 1048 166 bng 15 250 50 0 empty empty empty 17 7 0 10 -262144
-1 -1;
#X obj 1121 167 bng 15 250 50 0 empty empty empty 17 7 0 10 -262144
-1 -1;
#X msg 1048 231 freeze \$1;
#X obj 1048 212 tgl 15 0 empty empty empty 0 -6 0 8 -262144 -1 -1 0
1;
#X msg 1121 232 freeze \$1;
#X obj 1121 213 tgl 15 0 empty empty empty 0 -6 0 8 -262144 -1 -1 0
1;
#X obj 1048 190 metro 1500;
#X obj 965 534 writesf~ 2;
#X msg 1232 514 start;
#X msg 1087 464 stop;
#X msg 1046 464 print;
#X text 1076 509 1;
#X text 1215 510 2;
#X floatatom 135 50 5 0 0 0 - - -;
#X obj 1121 189 metro 1500;
#X obj 865 259 bng 15 250 50 0 empty empty empty 17 7 0 10 -262144
-1 -1;
#X obj 938 260 bng 15 250 50 0 empty empty empty 17 7 0 10 -262144
-1 -1;
#X msg 865 324 freeze \$1;
#X obj 865 305 tgl 15 0 empty empty empty 0 -6 0 8 -262144 -1 -1 0
1;
#X msg 938 325 freeze \$1;
#X obj 938 306 tgl 15 0 empty empty empty 0 -6 0 8 -262144 -1 -1 0
1;
#X obj 865 283 metro 5000;
#X obj 938 282 metro 5000;
#X obj 1040 264 bng 15 250 50 0 empty empty empty 17 7 0 10 -262144
-1 -1;
#X obj 1113 265 bng 15 250 50 0 empty empty empty 17 7 0 10 -262144
-1 -1;
#X msg 1040 329 freeze \$1;
#X obj 1040 310 tgl 15 0 empty empty empty 0 -6 0 8 -262144 -1 -1 0
1;
#X msg 1113 330 freeze \$1;
#X obj 1113 311 tgl 15 0 empty empty empty 0 -6 0 8 -262144 -1 -1 0
1;
#X obj 1040 288 metro 1000;
#X obj 1113 287 metro 1000;
#X floatatom 1214 99 5 0 0 0 - - -;
#X floatatom 1262 99 5 0 0 0 - - -;
#X floatatom 1314 97 5 0 0 0 - - -;
#X obj 923 587 delwrite~ delayLeft 4000;
#X obj 921 563 delwrite~ delayRight 4000;
#X obj 913 627 delread~ delayRight 1500;
#X obj 915 651 delread~ delayLeft 1000;
#X text 1085 484 CAMBIAR NOMBRE FICHERO CADA NUEVA REC.;
#X obj 347 -28 threshold~ 1 3000 0.1 1000;
#X obj 347 -5 bng 15 250 50 0 empty empty empty 17 7 0 10 -262144 -1
-1;
#X floatatom 347 62 5 0 0 0 - - -;
#X obj 1282 167 bng 15 250 50 0 empty empty empty 17 7 0 10 -262144
-1 -1;
#X msg 1282 232 freeze \$1;
#X obj 1282 213 tgl 15 0 empty empty empty 0 -6 0 8 -262144 -1 -1 0
1;
#X obj 1274 265 bng 15 250 50 0 empty empty empty 17 7 0 10 -262144
-1 -1;
#X msg 1274 330 freeze \$1;
#X obj 1274 311 tgl 15 0 empty empty empty 0 -6 0 8 -262144 -1 -1 0
1;
#X obj 1274 287 metro 1000;
#X obj 1212 169 bng 15 250 50 0 empty empty empty 17 7 0 10 -262144
-1 -1;
#X msg 1212 234 freeze \$1;
#X obj 1212 215 tgl 15 0 empty empty empty 0 -6 0 8 -262144 -1 -1 0
1;
#X obj 1204 267 bng 15 250 50 0 empty empty empty 17 7 0 10 -262144
-1 -1;
#X msg 1204 332 freeze \$1;
#X obj 1204 313 tgl 15 0 empty empty empty 0 -6 0 8 -262144 -1 -1 0
1;
#X obj 1204 289 metro 1000;
#X obj 1212 191 metro 5000;
#X obj 1282 189 metro 5000;
#X obj 1430 167 bng 15 250 50 0 empty empty empty 17 7 0 10 -262144
-1 -1;
#X msg 1430 232 freeze \$1;
#X obj 1430 213 tgl 15 0 empty empty empty 0 -6 0 8 -262144 -1 -1 0
1;
#X obj 1422 265 bng 15 250 50 0 empty empty empty 17 7 0 10 -262144
-1 -1;
#X msg 1422 330 freeze \$1;
#X obj 1422 311 tgl 15 0 empty empty empty 0 -6 0 8 -262144 -1 -1 0
1;
#X obj 1422 287 metro 1000;
#X obj 1360 169 bng 15 250 50 0 empty empty empty 17 7 0 10 -262144
-1 -1;
#X msg 1360 234 freeze \$1;
#X obj 1360 215 tgl 15 0 empty empty empty 0 -6 0 8 -262144 -1 -1 0
1;
#X obj 1352 267 bng 15 250 50 0 empty empty empty 17 7 0 10 -262144
-1 -1;
#X msg 1352 332 freeze \$1;
#X obj 1352 313 tgl 15 0 empty empty empty 0 -6 0 8 -262144 -1 -1 0
1;
#X obj 1352 289 metro 1000;
#X obj 1360 191 metro 6000;
#X obj 1430 189 metro 6000;
#X msg 393 569 bang;
#X msg 349 540 bang;
#X floatatom 349 631 0 0 0 0 - - -;
#X text 390 538 Click here to reset;
#X obj 349 600 cputime;
#X text 443 569 Click here to get elapsed CPU time;
#X obj 346 -52 *~ 5;
#X obj 527 -28 threshold~ 1 3000 0.1 1000;
#X obj 527 -5 bng 15 250 50 0 empty empty empty 17 7 0 10 -262144 -1
-1;
#X floatatom 527 62 5 0 0 0 - - -;
#X obj 527 -57 *~ 5.5;
#X obj 813 -101 *~ 6;
#X msg -4 194 stop;
#X obj -4 122 bng 15 250 50 0 empty empty empty 17 7 0 10 -262144 -1
-1;
#X obj -4 171 tgl 15 0 empty empty empty 17 7 0 10 -262144 -1 -1 0
1;
#X text -1 -13 900000 msec son 15 minutos;
#X msg -86 193 stop;
#X obj -86 121 bng 15 250 50 0 empty empty empty 17 7 0 10 -262144
-1 -1;
#X obj -86 170 tgl 15 0 empty empty empty 17 7 0 10 -262144 -1 -1 0
1;
#X msg -179 187 stop;
#X obj -179 115 bng 15 250 50 0 empty empty empty 17 7 0 10 -262144
-1 -1;
#X obj -179 164 tgl 15 0 empty empty empty 17 7 0 10 -262144 -1 -1
0 1;
#X obj 230 -145 bng 15 250 50 0 empty empty empty 17 7 0 10 -262144
-1 -1;
#X obj 230 -96 tgl 15 0 empty empty empty 17 7 0 10 -262144 -1 -1 0
1;
#X obj -29 -181 bng 15 250 50 0 empty empty empty 17 7 0 10 -262144
-1 -1;
#X text -54 -64 comment;
#X obj 146 -146 bng 15 250 50 0 empty empty empty 17 7 0 10 -262144
-1 -1;
#X obj 146 -97 tgl 15 0 empty empty empty 17 7 0 10 -262144 -1 -1 0
1;
#X obj 63 -144 bng 15 250 50 0 empty empty empty 17 7 0 10 -262144
-1 -1;
#X obj 63 -95 tgl 15 0 empty empty empty 17 7 0 10 -262144 -1 -1 0
1;
#X obj -29 -251 bng 15 250 50 0 empty empty empty 17 7 0 10 -262144
-1 -1;
#X obj -29 -202 tgl 15 0 empty empty empty 17 7 0 10 -262144 -1 -1
0 1;
#X obj -29 -226 metro 1e+06;
#X obj 230 -120 metro 300000;
#X obj 63 -119 metro 607000;
#X obj 146 -121 metro 307000;
#X obj -5 147 metro 301000;
#X obj -86 146 metro 601000;
#X obj -179 140 metro 901000;
#X obj 528 18 metro 305000;
#X obj 348 18 metro 305000;
#X obj 135 6 metro 305000;
#X msg 135 106 open pipero11.wav \, 1;
#X msg 527 146 open ampli.wav \, 1;
#X msg 143 138 open ampli2.wav \, 1;
#X msg 543 177 open electrica1.wav \, 1;
#X msg 154 166 open electrica2.wav \, 1;
#X msg 169 197 open electrica3.wav \, 1;
#X msg 183 223 open electrica4.wav \, 1;
#X msg 187 250 open electrica5.wav \, 1;
#X msg 357 141 open ampli0.wav \, 1;
#X msg 368 167 open ampli2.1.wav \, 1;
#X obj 527 85 sel 0 1 2;
#X obj 572 388 readsf~ 3;
#X msg 384 203 open caja1.wav \, 1;
#X msg 395 229 open caja2.wav \, 1;
#X obj 347 91 sel 0 1 2 3;
#X obj 385 370 readsf~ 4;
#X obj 347 39 random 4;
#X obj 527 40 random 3;
#X msg 563 206 open caja3.wav \, 1;
#X obj 135 81 sel 0 1 2 3 4 5;
#X obj 135 27 random 6;
#X obj 197 350 readsf~ 6;
#X msg 1093 512 open TASDmajor.wav;
#X text 1194 -19 [TASDmajor]: Tercer Acto Sonata D maj/y-or \, Miguel
Oliveros & Rafael Pérez \, Madrid 2015;
#X connect 0 0 31 0;
#X connect 0 0 8 0;
#X connect 0 0 8 1;
#X connect 0 0 124 0;
#X connect 0 0 128 0;
#X connect 0 0 129 0;
#X connect 3 0 7 0;
#X connect 4 0 42 0;
#X connect 7 0 2 0;
#X connect 8 0 29 0;
#X connect 8 0 51 0;
#X connect 8 0 78 0;
#X connect 8 1 29 1;
#X connect 8 1 51 1;
#X connect 8 1 79 0;
#X connect 9 0 8 0;
#X connect 10 0 8 0;
#X connect 11 0 8 0;
#X connect 12 0 8 0;
#X connect 13 0 8 0;
#X connect 14 0 8 0;
#X connect 15 0 8 0;
#X connect 16 0 8 0;
#X connect 17 0 16 0;
#X connect 18 0 15 0;
#X connect 19 0 13 0;
#X connect 19 0 28 0;
#X connect 20 0 12 0;
#X connect 20 0 27 0;
#X connect 21 0 11 0;
#X connect 21 0 26 0;
#X connect 22 0 10 0;
#X connect 22 0 25 0;
#X connect 23 0 9 0;
#X connect 23 0 24 0;
#X connect 31 0 35 0;
#X connect 31 1 75 0;
#X connect 31 2 76 0;
#X connect 31 3 77 0;
#X connect 32 0 33 0;
#X connect 32 0 44 0;
#X connect 32 0 93 0;
#X connect 32 0 109 0;
#X connect 32 1 34 0;
#X connect 32 1 45 0;
#X connect 32 1 86 0;
#X connect 32 1 102 0;
#X connect 33 0 40 0;
#X connect 33 0 59 0;
#X connect 34 0 41 0;
#X connect 34 0 60 0;
#X connect 35 0 32 0;
#X connect 36 0 8 0;
#X connect 37 0 36 0;
#X connect 38 0 8 0;
#X connect 39 0 38 0;
#X connect 40 0 37 0;
#X connect 41 0 39 0;
#X connect 42 0 43 0;
#X connect 42 0 159 0;
#X connect 43 0 18 0;
#X connect 44 0 50 0;
#X connect 44 0 67 0;
#X connect 45 0 58 0;
#X connect 45 0 68 0;
#X connect 46 0 8 0;
#X connect 47 0 46 0;
#X connect 48 0 8 0;
#X connect 49 0 48 0;
#X connect 50 0 47 0;
#X connect 52 0 51 0;
#X connect 53 0 51 0;
#X connect 54 0 51 0;
#X connect 57 0 179 0;
#X connect 58 0 49 0;
#X connect 59 0 65 0;
#X connect 60 0 66 0;
#X connect 61 0 8 0;
#X connect 62 0 61 0;
#X connect 63 0 8 0;
#X connect 64 0 63 0;
#X connect 65 0 62 0;
#X connect 66 0 64 0;
#X connect 67 0 73 0;
#X connect 68 0 74 0;
#X connect 69 0 8 0;
#X connect 70 0 69 0;
#X connect 71 0 8 0;
#X connect 72 0 71 0;
#X connect 73 0 70 0;
#X connect 74 0 72 0;
#X connect 80 0 29 1;
#X connect 80 0 51 1;
#X connect 81 0 29 0;
#X connect 81 0 51 0;
#X connect 83 0 84 0;
#X connect 84 0 158 0;
#X connect 85 0 174 0;
#X connect 86 0 89 0;
#X connect 86 0 101 0;
#X connect 88 0 87 0;
#X connect 89 0 92 0;
#X connect 90 0 8 0;
#X connect 91 0 90 0;
#X connect 92 0 91 0;
#X connect 93 0 96 0;
#X connect 93 0 100 0;
#X connect 95 0 94 0;
#X connect 96 0 99 0;
#X connect 97 0 8 0;
#X connect 98 0 97 0;
#X connect 99 0 98 0;
#X connect 100 0 95 0;
#X connect 101 0 88 0;
#X connect 102 0 105 0;
#X connect 102 0 117 0;
#X connect 104 0 103 0;
#X connect 105 0 108 0;
#X connect 106 0 8 0;
#X connect 107 0 106 0;
#X connect 108 0 107 0;
#X connect 109 0 112 0;
#X connect 109 0 116 0;
#X connect 111 0 110 0;
#X connect 112 0 115 0;
#X connect 113 0 8 0;
#X connect 114 0 113 0;
#X connect 115 0 114 0;
#X connect 116 0 111 0;
#X connect 117 0 104 0;
#X connect 118 0 122 1;
#X connect 119 0 122 0;
#X connect 122 0 120 0;
#X connect 124 0 83 0;
#X connect 125 0 126 0;
#X connect 126 0 157 0;
#X connect 127 0 170 0;
#X connect 128 0 125 0;
#X connect 129 0 2 0;
#X connect 129 0 4 0;
#X connect 130 0 171 0;
#X connect 130 0 175 0;
#X connect 130 0 181 0;
#X connect 131 0 154 0;
#X connect 132 0 130 0;
#X connect 134 0 171 0;
#X connect 134 0 175 0;
#X connect 134 0 181 0;
#X connect 135 0 155 0;
#X connect 136 0 134 0;
#X connect 137 0 171 0;
#X connect 137 0 175 0;
#X connect 137 0 181 0;
#X connect 138 0 156 0;
#X connect 139 0 137 0;
#X connect 140 0 151 0;
#X connect 141 0 126 0;
#X connect 141 0 84 0;
#X connect 141 0 42 0;
#X connect 141 0 17 0;
#X connect 142 0 131 0;
#X connect 142 0 135 0;
#X connect 142 0 138 0;
#X connect 142 0 140 0;
#X connect 142 0 144 0;
#X connect 142 0 146 0;
#X connect 144 0 153 0;
#X connect 145 0 42 0;
#X connect 145 0 126 0;
#X connect 145 0 84 0;
#X connect 145 0 17 0;
#X connect 146 0 152 0;
#X connect 147 0 84 0;
#X connect 147 0 42 0;
#X connect 147 0 126 0;
#X connect 147 0 17 0;
#X connect 148 0 150 0;
#X connect 149 0 142 0;
#X connect 150 0 149 0;
#X connect 151 0 141 0;
#X connect 152 0 147 0;
#X connect 153 0 145 0;
#X connect 154 0 132 0;
#X connect 155 0 136 0;
#X connect 156 0 139 0;
#X connect 157 0 177 0;
#X connect 158 0 176 0;
#X connect 159 0 180 0;
#X connect 160 0 181 0;
#X connect 161 0 171 0;
#X connect 162 0 181 0;
#X connect 163 0 171 0;
#X connect 164 0 181 0;
#X connect 165 0 181 0;
#X connect 166 0 181 0;
#X connect 167 0 181 0;
#X connect 168 0 175 0;
#X connect 169 0 175 0;
#X connect 170 0 161 0;
#X connect 170 1 163 0;
#X connect 170 2 178 0;
#X connect 171 0 8 0;
#X connect 171 0 8 1;
#X connect 171 1 8 1;
#X connect 171 1 8 0;
#X connect 171 2 8 1;
#X connect 171 2 8 0;
#X connect 171 3 8 1;
#X connect 171 3 8 0;
#X connect 172 0 175 0;
#X connect 173 0 175 0;
#X connect 174 0 168 0;
#X connect 174 1 169 0;
#X connect 174 2 172 0;
#X connect 174 3 173 0;
#X connect 175 0 8 0;
#X connect 175 0 8 1;
#X connect 175 1 8 1;
#X connect 175 1 8 0;
#X connect 175 2 8 1;
#X connect 175 2 8 0;
#X connect 175 3 8 0;
#X connect 175 3 8 1;
#X connect 175 4 8 1;
#X connect 176 0 85 0;
#X connect 177 0 127 0;
#X connect 178 0 171 0;
#X connect 179 0 160 0;
#X connect 179 1 162 0;
#X connect 179 2 164 0;
#X connect 179 3 165 0;
#X connect 179 4 166 0;
#X connect 179 5 167 0;
#X connect 180 0 57 0;
#X connect 181 0 8 0;
#X connect 181 0 8 1;
#X connect 181 1 8 1;
#X connect 181 1 8 0;
#X connect 181 2 8 1;
#X connect 181 2 8 0;
#X connect 181 3 8 1;
#X connect 181 3 8 0;
#X connect 181 4 8 0;
#X connect 181 4 8 1;
#X connect 181 5 8 0;
#X connect 181 5 8 1;
#X connect 181 6 8 1;
#X connect 181 6 8 0;
#X connect 182 0 51 0;
#X restore -32 -111 pd META;
#X text -44 23 [TASDmajor]: Tercer Acto Sonata D maj/y-or \, Miguel
Oliveros & Rafael Pérez \, Madrid 2015;
#X connect 0 0 1 0;
#X connect 0 0 15 0;
#X connect 12 0 17 0;
#X connect 13 0 17 0;
#X connect 15 0 16 0;
#X connect 15 0 17 0;
#X connect 15 0 18 0;
#X connect 17 0 3 0;
#X connect 17 0 2 0;
#X connect 18 0 20 0;
#X connect 18 0 19 0;
