#N canvas -8 -8 1303 725 10;
#X obj 315 -19 tgl 15 0 empty empty empty 17 7 0 10 -262144 -1 -1 0
1;
#X obj 118 145 bng 15 250 50 0 empty empty empty 17 7 0 10 -262144
-1 -1;
#X obj 149 141 counter;
#X floatatom 149 173 5 0 0 0 - - -;
#X obj 149 254 sel 0 1 2 3;
#X floatatom 149 228 5 0 0 0 - - -;
#X obj 150 198 % 4;
#X obj 456 158 bng 15 250 50 0 empty empty empty 17 7 0 10 -262144
-1 -1;
#X obj 487 154 counter;
#X floatatom 487 186 5 0 0 0 - - -;
#X obj 487 336 sel 0 1 2 3;
#X floatatom 487 241 5 0 0 0 - - -;
#X obj 488 211 % 4;
#X obj 487 281 random 4;
#X floatatom 487 306 5 0 0 0 - - -;
#X obj 487 260 bng 15 250 50 0 empty empty empty 17 7 0 10 -262144
-1 -1;
#X msg 583 88 150;
#X msg 604 109 300;
#X msg 635 139 600;
#X obj 487 124 metro 900;
#X obj 99 642 readsf~ 4;
#X obj 480 509 readsf~ 4;
#X msg 424 467 stop;
#X msg 55 602 stop;
#X obj 304 508 hsl 128 15 0 127 0 0 empty empty empty -2 -8 0 10 -262144
-1 -1 0 1;
#X obj 203 588 dac~ 1 2;
#X obj 206 513 *~ 0.5;
#X obj 362 280 vsl 15 128 0 127 0 0 empty empty empty 0 -9 0 10 -262144
-1 -1 0 1;
#X obj 675 552 equal_power_pan~;
#X obj 698 597 dac~ 1 2;
#X obj 674 521 *~ 0.5;
#X obj 722 381 vsl 15 128 0 127 0 0 empty empty empty 0 -9 0 10 -262144
-1 -1 0 1;
#X obj 774 520 hsl 128 15 0 127 0 0 empty empty empty -2 -8 0 10 -262144
-1 -1 0 1;
#X floatatom 644 311 5 0 0 0 - - -;
#X obj 644 286 random 127;
#X floatatom 836 423 5 0 0 0 - - -;
#X obj 836 398 random 127;
#X floatatom 362 257 5 0 0 0 - - -;
#X obj 362 232 random 127;
#X floatatom 254 255 5 0 0 0 - - -;
#X obj 254 230 random 127;
#X obj 194 552 gogins_pan~;
#X obj 223 101 bng 15 250 50 0 empty empty empty 17 7 0 10 -262144
-1 -1;
#X obj 255 114 counter;
#X floatatom 255 146 5 0 0 0 - - -;
#X floatatom 256 193 5 0 0 0 - - -;
#X obj 256 171 % 127;
#X obj 256 66 metro 1666;
#X obj 280 84 bng 15 250 50 0 empty empty empty 17 7 0 10 -262144 -1
-1;
#X obj 149 111 metro 17000;
#X obj 325 96 bng 15 250 50 0 empty empty empty 17 7 0 10 -262144 -1
-1;
#X obj 362 108 counter;
#X floatatom 362 140 5 0 0 0 - - -;
#X floatatom 362 186 5 0 0 0 - - -;
#X obj 363 165 % 127;
#X obj 379 78 bng 15 250 50 0 empty empty empty 17 7 0 10 -262144 -1
-1;
#X obj 355 56 metro 833;
#X obj 362 206 bng 15 250 50 0 empty empty empty 17 7 0 10 -262144
-1 -1;
#X obj 255 211 bng 15 250 50 0 empty empty empty 17 7 0 10 -262144
-1 -1;
#X obj 1060 20 adc~;
#N canvas 0 22 796 453 (subpatch) 0;
#X array array1 100 float 3;
#A 0 -0.00767047 -0.00632175 -0.00461128 -0.00245182 3.86927e-005 0.00289895
0.00635553 0.00994656 0.0130576 0.0158731 0.0188045 0.0220002 0.0249652
0.027221 0.0286264 0.0295156 0.0301851 0.0305913 0.0310796 0.0315452
0.0317022 0.0315746 0.0309794 0.0299312 0.0286748 0.0271775 0.0253493
0.0235254 0.022015 0.0206026 0.01904 0.0172421 0.0151564 0.0129771
0.0108009 0.00825991 0.00516355 0.00213863 -0.000494622 -0.00280477
-0.00483546 -0.0066205 -0.00763272 -0.0079895 -0.00821235 -0.00823509
-0.00788456 -0.00713355 -0.00620228 -0.00496355 -0.00354823 -0.00199069
-0.000258314 0.0011245 0.00232175 0.00362961 0.00502571 0.00640328
0.00750203 0.00843788 0.00950737 0.0106396 0.0116753 0.0126842 0.0137936
0.0149689 0.0160396 0.0169148 0.0176955 0.0184996 0.0193472 0.0199209
0.0200903 0.0197856 0.0186688 0.0167695 0.0144136 0.0120455 0.00985274
0.00739753 0.0044807 0.00137137 -0.00161618 -0.00414307 -0.00598668
-0.00719562 -0.00780071 -0.00800569 -0.00825059 -0.00843437 -0.00819711
-0.00747279 -0.00635786 -0.00497686 -0.00346187 -0.00186723 8.19837e-005
0.00265936 0.00572033 0.00893666;
#X coords 0 1 99 -1 200 140 1;
#X restore 1304 -25 graph;
#X obj 1196 64 tabwrite~ array1;
#X obj 1196 22 bng 15 250 50 0 empty empty empty 17 7 0 10 -262144
-1 -1;
#X obj 1051 152 threshold~ 1 3000 0.1 1000;
#X text 1262 42 msec.;
#X text 902 58 input sensitivity mic;
#X obj 1196 43 metro 160;
#X obj 926 760 freeverb~;
#X msg 946 103 roomsize \$1;
#X msg 946 148 damping \$1;
#X msg 948 200 width \$1;
#X msg 948 244 wet \$1;
#X msg 948 288 dry \$1;
#X msg 1157 273 print;
#X msg 1051 235 freeze \$1;
#X msg 1065 287 bypass \$1;
#X obj 1065 268 tgl 15 0 empty empty empty 0 -6 0 8 -262144 -1 -1 0
1;
#X obj 1051 215 tgl 15 0 empty empty empty 0 -6 0 8 -262144 -1 -1 0
1;
#X obj 960 265 hsl 60 18 0 1 0 1 empty empty dry 2 9 1 12 -225271 -1
-1 2700 0;
#X obj 960 221 hsl 60 18 0 1 0 1 empty empty wet 2 9 1 12 -225271 -1
-1 4000 0;
#X obj 958 169 hsl 60 18 0 1 0 1 empty empty width 2 9 1 12 -262131
-1 -1 3900 0;
#X obj 958 125 hsl 60 18 0 2 0 1 empty empty damping 2 9 1 12 -261689
-1 -1 1700 0;
#X obj 963 79 hsl 60 18 0.11 1.1 0 1 empty empty roomsize 2 9 1 12
-261689 -1 -1 4200 0;
#X floatatom 928 84 3 0 0 0 - - -;
#X floatatom 928 129 3 0 0 0 - - -;
#X floatatom 928 174 3 0 0 0 - - -;
#X floatatom 930 225 3 0 0 0 - - -;
#X floatatom 930 269 3 0 0 0 - - -;
#X text 1133 196 msec.;
#X obj 1403 299 fiddle~;
#X obj 1403 351 moses 60;
#X obj 1139 392 bng 15 250 50 0 empty empty empty 17 7 0 10 -262144
-1 -1;
#X obj 1212 393 bng 15 250 50 0 empty empty empty 17 7 0 10 -262144
-1 -1;
#X floatatom 1403 323 5 0 0 0 - - -;
#X msg 1139 457 freeze \$1;
#X obj 1139 438 tgl 15 0 empty empty empty 0 -6 0 8 -262144 -1 -1 0
1;
#X msg 1212 458 freeze \$1;
#X obj 1212 439 tgl 15 0 empty empty empty 0 -6 0 8 -262144 -1 -1 0
1;
#X obj 1139 416 metro 3500;
#X obj 1212 415 metro 3500;
#X obj 1051 175 bng 15 250 50 0 empty empty empty 17 7 0 10 -262144
-1 -1;
#X obj 1051 195 metro 2500;
#X obj 1286 391 bng 15 250 50 0 empty empty empty 17 7 0 10 -262144
-1 -1;
#X obj 1359 392 bng 15 250 50 0 empty empty empty 17 7 0 10 -262144
-1 -1;
#X msg 1286 456 freeze \$1;
#X obj 1286 437 tgl 15 0 empty empty empty 0 -6 0 8 -262144 -1 -1 0
1;
#X msg 1359 457 freeze \$1;
#X obj 1359 438 tgl 15 0 empty empty empty 0 -6 0 8 -262144 -1 -1 0
1;
#X obj 1286 415 metro 1500;
#X obj 1203 759 writesf~ 2;
#X msg 1470 739 start;
#X msg 1325 689 stop;
#X msg 1284 689 print;
#X text 1314 734 1;
#X text 1453 735 2;
#X obj 1359 414 metro 1500;
#X obj 1103 484 bng 15 250 50 0 empty empty empty 17 7 0 10 -262144
-1 -1;
#X obj 1176 485 bng 15 250 50 0 empty empty empty 17 7 0 10 -262144
-1 -1;
#X msg 1103 549 freeze \$1;
#X obj 1103 530 tgl 15 0 empty empty empty 0 -6 0 8 -262144 -1 -1 0
1;
#X msg 1176 550 freeze \$1;
#X obj 1176 531 tgl 15 0 empty empty empty 0 -6 0 8 -262144 -1 -1 0
1;
#X obj 1103 508 metro 5000;
#X obj 1176 507 metro 5000;
#X obj 1278 489 bng 15 250 50 0 empty empty empty 17 7 0 10 -262144
-1 -1;
#X obj 1351 490 bng 15 250 50 0 empty empty empty 17 7 0 10 -262144
-1 -1;
#X msg 1278 554 freeze \$1;
#X obj 1278 535 tgl 15 0 empty empty empty 0 -6 0 8 -262144 -1 -1 0
1;
#X msg 1351 555 freeze \$1;
#X obj 1351 536 tgl 15 0 empty empty empty 0 -6 0 8 -262144 -1 -1 0
1;
#X obj 1278 513 metro 1000;
#X obj 1351 512 metro 1000;
#X floatatom 1452 324 5 0 0 0 - - -;
#X floatatom 1500 324 5 0 0 0 - - -;
#X floatatom 1552 322 5 0 0 0 - - -;
#X obj 1151 852 delread~ delayRight 1500;
#X obj 1153 876 delread~ delayLeft 1000;
#X text 1323 709 CAMBIAR NOMBRE FICHERO CADA NUEVA REC.;
#X obj 1520 392 bng 15 250 50 0 empty empty empty 17 7 0 10 -262144
-1 -1;
#X msg 1520 457 freeze \$1;
#X obj 1520 438 tgl 15 0 empty empty empty 0 -6 0 8 -262144 -1 -1 0
1;
#X obj 1512 490 bng 15 250 50 0 empty empty empty 17 7 0 10 -262144
-1 -1;
#X msg 1512 555 freeze \$1;
#X obj 1512 536 tgl 15 0 empty empty empty 0 -6 0 8 -262144 -1 -1 0
1;
#X obj 1512 512 metro 1000;
#X obj 1450 394 bng 15 250 50 0 empty empty empty 17 7 0 10 -262144
-1 -1;
#X msg 1450 459 freeze \$1;
#X obj 1450 440 tgl 15 0 empty empty empty 0 -6 0 8 -262144 -1 -1 0
1;
#X obj 1442 492 bng 15 250 50 0 empty empty empty 17 7 0 10 -262144
-1 -1;
#X msg 1442 557 freeze \$1;
#X obj 1442 538 tgl 15 0 empty empty empty 0 -6 0 8 -262144 -1 -1 0
1;
#X obj 1442 514 metro 1000;
#X obj 1450 416 metro 5000;
#X obj 1520 414 metro 5000;
#X obj 1668 392 bng 15 250 50 0 empty empty empty 17 7 0 10 -262144
-1 -1;
#X msg 1668 457 freeze \$1;
#X obj 1668 438 tgl 15 0 empty empty empty 0 -6 0 8 -262144 -1 -1 0
1;
#X obj 1660 490 bng 15 250 50 0 empty empty empty 17 7 0 10 -262144
-1 -1;
#X msg 1660 555 freeze \$1;
#X obj 1660 536 tgl 15 0 empty empty empty 0 -6 0 8 -262144 -1 -1 0
1;
#X obj 1660 512 metro 1000;
#X obj 1598 394 bng 15 250 50 0 empty empty empty 17 7 0 10 -262144
-1 -1;
#X msg 1598 459 freeze \$1;
#X obj 1598 440 tgl 15 0 empty empty empty 0 -6 0 8 -262144 -1 -1 0
1;
#X obj 1590 492 bng 15 250 50 0 empty empty empty 17 7 0 10 -262144
-1 -1;
#X msg 1590 557 freeze \$1;
#X obj 1590 538 tgl 15 0 empty empty empty 0 -6 0 8 -262144 -1 -1 0
1;
#X obj 1590 514 metro 1000;
#X obj 1598 416 metro 6000;
#X obj 1668 414 metro 6000;
#X obj 1051 124 *~ 6;
#X obj 935 819 dac~ 1 2;
#X obj 1161 812 delwrite~ delayLeft 8000;
#X obj 1159 788 delwrite~ delayRight 8000;
#X text 459 0 Para automatizar insertar metro que inice y metro que
finalice a los 15 minutos y conectar dichos metros a stop o toggle.
;
#X obj 315 -43 bng 15 250 50 0 empty empty empty 17 7 0 10 -262144
-1 -1;
#X obj 313 -82 tgl 15 0 empty empty empty 17 7 0 10 -262144 -1 -1 0
1;
#X obj 314 -65 metro 100;
#X obj 406 -46 bng 15 250 50 0 empty empty empty 17 7 0 10 -262144
-1 -1;
#X obj 405 -68 metro 900000;
#X msg 1332 737 open PIPA.wav;
#X msg 53 305 open op1.3.wav \, 1;
#X msg 72 337 open op1.3.wav \, 1;
#X msg 117 370 open op1.3.wav \, 1;
#X msg 150 411 open op1.3.wav \, 1;
#X msg 476 366 open op1.3.wav \, 1;
#X msg 495 398 open op1.3.wav \, 1;
#X msg 540 431 open op1.3.wav \, 1;
#X msg 573 472 open op1.3.wav \, 1;
#X connect 0 0 19 0;
#X connect 0 0 47 0;
#X connect 0 0 49 0;
#X connect 0 0 56 0;
#X connect 1 0 76 0;
#X connect 2 0 3 0;
#X connect 3 0 6 0;
#X connect 4 0 181 0;
#X connect 4 1 182 0;
#X connect 4 2 183 0;
#X connect 4 3 184 0;
#X connect 5 0 4 0;
#X connect 6 0 5 0;
#X connect 8 0 9 0;
#X connect 9 0 12 0;
#X connect 10 0 185 0;
#X connect 10 1 186 0;
#X connect 10 2 187 0;
#X connect 10 3 188 0;
#X connect 11 0 15 0;
#X connect 12 0 11 0;
#X connect 13 0 14 0;
#X connect 14 0 10 0;
#X connect 15 0 13 0;
#X connect 15 0 34 0;
#X connect 15 0 36 0;
#X connect 16 0 19 1;
#X connect 17 0 19 1;
#X connect 18 0 19 1;
#X connect 19 0 7 0;
#X connect 19 0 8 0;
#X connect 20 0 41 0;
#X connect 20 0 67 0;
#X connect 20 0 67 1;
#X connect 20 4 67 1;
#X connect 21 0 28 0;
#X connect 21 0 67 0;
#X connect 21 0 67 1;
#X connect 21 4 67 1;
#X connect 22 0 21 0;
#X connect 23 0 20 0;
#X connect 24 0 41 1;
#X connect 26 0 41 0;
#X connect 27 0 41 1;
#X connect 28 0 29 0;
#X connect 28 1 29 1;
#X connect 30 0 28 0;
#X connect 31 0 28 1;
#X connect 32 0 28 1;
#X connect 33 0 31 0;
#X connect 34 0 33 0;
#X connect 35 0 32 0;
#X connect 36 0 35 0;
#X connect 37 0 27 0;
#X connect 38 0 37 0;
#X connect 39 0 24 0;
#X connect 40 0 39 0;
#X connect 41 0 25 0;
#X connect 41 1 25 1;
#X connect 43 0 44 0;
#X connect 44 0 46 0;
#X connect 45 0 58 0;
#X connect 46 0 45 0;
#X connect 47 0 42 0;
#X connect 47 0 43 0;
#X connect 48 0 43 1;
#X connect 49 0 1 0;
#X connect 49 0 2 0;
#X connect 51 0 52 0;
#X connect 52 0 54 0;
#X connect 53 0 57 0;
#X connect 54 0 53 0;
#X connect 55 0 51 1;
#X connect 56 0 50 0;
#X connect 56 0 51 0;
#X connect 57 0 38 0;
#X connect 58 0 40 0;
#X connect 59 0 89 0;
#X connect 59 0 170 0;
#X connect 62 0 66 0;
#X connect 63 0 100 0;
#X connect 66 0 61 0;
#X connect 67 0 109 0;
#X connect 67 0 171 0;
#X connect 67 0 172 0;
#X connect 67 1 109 1;
#X connect 67 1 171 1;
#X connect 67 1 173 0;
#X connect 68 0 67 0;
#X connect 69 0 67 0;
#X connect 70 0 67 0;
#X connect 71 0 67 0;
#X connect 72 0 67 0;
#X connect 73 0 67 0;
#X connect 74 0 67 0;
#X connect 75 0 67 0;
#X connect 76 0 75 0;
#X connect 77 0 74 0;
#X connect 78 0 72 0;
#X connect 78 0 87 0;
#X connect 79 0 71 0;
#X connect 79 0 86 0;
#X connect 80 0 70 0;
#X connect 80 0 85 0;
#X connect 81 0 69 0;
#X connect 81 0 84 0;
#X connect 82 0 68 0;
#X connect 82 0 83 0;
#X connect 89 0 93 0;
#X connect 89 1 132 0;
#X connect 89 2 133 0;
#X connect 89 3 134 0;
#X connect 90 0 91 0;
#X connect 90 0 102 0;
#X connect 90 0 145 0;
#X connect 90 0 161 0;
#X connect 90 1 92 0;
#X connect 90 1 103 0;
#X connect 90 1 138 0;
#X connect 90 1 154 0;
#X connect 91 0 98 0;
#X connect 91 0 116 0;
#X connect 92 0 99 0;
#X connect 92 0 117 0;
#X connect 93 0 90 0;
#X connect 94 0 67 0;
#X connect 95 0 94 0;
#X connect 96 0 67 0;
#X connect 97 0 96 0;
#X connect 98 0 95 0;
#X connect 99 0 97 0;
#X connect 100 0 101 0;
#X connect 101 0 77 0;
#X connect 102 0 108 0;
#X connect 102 0 124 0;
#X connect 103 0 115 0;
#X connect 103 0 125 0;
#X connect 104 0 67 0;
#X connect 105 0 104 0;
#X connect 106 0 67 0;
#X connect 107 0 106 0;
#X connect 108 0 105 0;
#X connect 110 0 109 0;
#X connect 111 0 109 0;
#X connect 112 0 109 0;
#X connect 115 0 107 0;
#X connect 116 0 122 0;
#X connect 117 0 123 0;
#X connect 118 0 67 0;
#X connect 119 0 118 0;
#X connect 120 0 67 0;
#X connect 121 0 120 0;
#X connect 122 0 119 0;
#X connect 123 0 121 0;
#X connect 124 0 130 0;
#X connect 125 0 131 0;
#X connect 126 0 67 0;
#X connect 127 0 126 0;
#X connect 128 0 67 0;
#X connect 129 0 128 0;
#X connect 130 0 127 0;
#X connect 131 0 129 0;
#X connect 135 0 109 1;
#X connect 135 0 171 1;
#X connect 136 0 109 0;
#X connect 136 0 171 0;
#X connect 138 0 141 0;
#X connect 138 0 153 0;
#X connect 140 0 139 0;
#X connect 141 0 144 0;
#X connect 142 0 67 0;
#X connect 143 0 142 0;
#X connect 144 0 143 0;
#X connect 145 0 148 0;
#X connect 145 0 152 0;
#X connect 147 0 146 0;
#X connect 148 0 151 0;
#X connect 149 0 67 0;
#X connect 150 0 149 0;
#X connect 151 0 150 0;
#X connect 152 0 147 0;
#X connect 153 0 140 0;
#X connect 154 0 157 0;
#X connect 154 0 169 0;
#X connect 156 0 155 0;
#X connect 157 0 160 0;
#X connect 158 0 67 0;
#X connect 159 0 158 0;
#X connect 160 0 159 0;
#X connect 161 0 164 0;
#X connect 161 0 168 0;
#X connect 163 0 162 0;
#X connect 164 0 167 0;
#X connect 165 0 67 0;
#X connect 166 0 165 0;
#X connect 167 0 166 0;
#X connect 168 0 163 0;
#X connect 169 0 156 0;
#X connect 170 0 61 0;
#X connect 170 0 63 0;
#X connect 175 0 0 0;
#X connect 176 0 177 0;
#X connect 176 0 179 0;
#X connect 177 0 175 0;
#X connect 178 0 22 0;
#X connect 178 0 23 0;
#X connect 179 0 178 0;
#X connect 180 0 109 0;
#X connect 181 0 20 0;
#X connect 182 0 20 0;
#X connect 183 0 20 0;
#X connect 184 0 20 0;
#X connect 185 0 21 0;
#X connect 186 0 21 0;
#X connect 187 0 21 0;
#X connect 188 0 21 0;
